<svg width="1204" height="360" viewBox="0 0 1204 360" fill="none" xmlns="http://www.w3.org/2000/svg">
<path d="M2 76C22 56 42 56 62 76C82 96 102 96 122 76C142 56 162 56 182 76C202 96 222 96 242 76C262 56 282 56 302 76C322 96 342 96 362 76C382 56 402 56 422 76C442 96 462 96 482 76C502 56 522 56 542 76C562 96 582 96 602 76C622 56 642 56 662 76C682 96 702 96 722 76C742 56 762 56 782 76C802 96 822 96 842 76C862 56 882 56 902 76C922 96 942 96 962 76C982 56 1002 56 1022 76C1042 96 1062 96 1082 76C1102 56 1122 56 1142 76C1162 96 1182 96 1202 76" stroke="#00F0FF" stroke-opacity="0.7" stroke-width="4"/>
</svg>
