<svg version="1.1" xmlns="http://www.w3.org/2000/svg" xmlns:xlink="http://www.w3.org/1999/xlink" width="1042.84121" height="360.10385" viewBox="0,0,1042.84121,360.10385"><g transform="translate(281.73266,0.05193)"><g data-paper-data="{&quot;isPaintingLayer&quot;:true}" fill="none" fill-rule="nonzero" stroke="#9f9f9f" stroke-width="6.5" stroke-linecap="butt" stroke-linejoin="miter" stroke-miterlimit="10" stroke-dasharray="" stroke-dashoffset="0" style="mix-blend-mode: normal"><path d="M-104.54943,3.19811l-62.434,353.60365h-110.87512l62.434,-353.60365zM56.40193,3.19811l-47.45118,269.69087h106.88195l-14.98286,83.91278h-217.75707l62.434,-353.60365zM433.89806,3.19816l-15.47226,87.89485h-124.868l-7.48585,43.95851h109.87403l-14.98282,83.40103h-109.87403l-8.98745,49.94277h124.85689l-15.48336,88.4064h-235.73202l62.42289,-353.60365zM656.47142,3.19816c31.96405,0 56.76675,6.32363 74.41358,18.97609c17.9798,12.31949 26.97355,30.46345 26.97355,54.43649c0,5.66026 -0.50268,11.82732 -1.50159,18.4866c-3.66254,20.64348 -12.1536,38.11728 -25.47201,52.4343c-13.31836,13.98435 -29.29488,23.31329 -47.94053,27.97464c17.31381,4.32843 30.46375,12.65192 39.45363,24.97141c9.3228,11.98657 13.98177,26.13091 13.98177,42.44576c0,5.32749 -0.49162,10.99187 -1.49049,16.98506c-5.32734,30.96509 -19.81789,54.94115 -43.45801,71.922c-23.3071,16.64792 -54.09831,24.97141 -92.38857,24.97141h-185.29986l62.434,-353.60365zM562.5812,141.04689h42.9463c9.98879,0 17.82061,-1.99976 23.48092,-5.99527c5.66031,-3.99546 9.15726,-10.16266 10.48909,-18.48665c0.33292,-1.66481 0.48944,-3.82104 0.48944,-6.48476c0,-6.65913 -2.15638,-11.48563 -6.48481,-14.48232c-3.99546,-2.99659 -10.33009,-4.50483 -18.9871,-4.50483h-42.94635zM540.60192,267.89478h50.44336c9.98874,0 17.65298,-1.83238 22.98032,-5.49477c5.66031,-3.99556 9.15726,-10.31918 10.48909,-18.97609c0.33292,-1.66481 0.48944,-3.82119 0.48944,-6.48476c0,-12.65251 -8.49102,-18.9871 -25.47196,-18.9871h-50.44327z"/></g></g></svg>