<svg width="480" height="360" viewBox="0 0 480 360" fill="none" xmlns="http://www.w3.org/2000/svg">
<g clip-path="url(#clip0_1967_8904)">
<path d="M-360 76C-340 56 -320 56 -300 76C-280 96 -260 96 -240 76C-220 56 -200 56 -180 76C-160 96 -140 96 -120 76C-100 56 -80 56 -60 76C-40 96 -20 96 0 76C20 56 40 56 60 76C80 96 100 96 120 76C140 56 160 56 180 76C200 96 220 96 240 76C260 56 280 56 300 76C320 96 340 96 360 76C380 56 400 56 420 76C440 96 460 96 480 76C500 56 520 56 540 76C560 96 580 96 600 76C620 56 640 56 660 76C680 96 700 96 720 76C740 56 760 56 780 76C800 96 820 96 840 76" stroke="#00F0FF" stroke-opacity="0.5" stroke-width="4"/>
</g>
<defs>
<clipPath id="clip0_1967_8904">
<rect width="480" height="360" fill="white"/>
</clipPath>
</defs>
</svg>
