<svg width="480" height="360" viewBox="0 0 480 360" fill="none" xmlns="http://www.w3.org/2000/svg">
<path d="M175.22 196.491H181.632V172.777H175.22V196.491ZM178.426 169.725C179.392 169.725 180.204 169.393 180.863 168.729C181.522 168.066 181.851 167.277 181.851 166.362C181.851 165.433 181.522 164.644 180.863 163.995C180.204 163.332 179.392 163 178.426 163C177.459 163 176.647 163.332 175.988 163.995C175.329 164.644 175 165.433 175 166.362C175 167.277 175.329 168.066 175.988 168.729C176.647 169.393 177.459 169.725 178.426 169.725Z" fill="white"/>
<path d="M186.09 196.491H192.502V164.571H186.09V196.491Z" fill="white"/>
<path d="M236.86 196.912C238.865 196.912 240.593 196.41 242.042 195.407C243.506 194.39 244.633 192.952 245.424 191.094C246.229 189.221 246.632 186.994 246.632 184.413V184.369C246.632 181.773 246.236 179.547 245.446 177.688C244.655 175.815 243.535 174.378 242.086 173.375C240.637 172.372 238.895 171.871 236.86 171.871C235.206 171.871 233.734 172.261 232.446 173.043C231.172 173.825 230.228 174.886 229.613 176.228H229.284V163.243H222.872V196.491H229.284V192.664H229.613C230.257 193.992 231.202 195.031 232.446 195.783C233.69 196.535 235.162 196.912 236.86 196.912ZM234.686 191.558C233.573 191.558 232.607 191.271 231.787 190.696C230.982 190.12 230.352 189.302 229.899 188.24C229.459 187.164 229.24 185.888 229.24 184.413V184.369C229.24 182.894 229.459 181.626 229.899 180.564C230.352 179.488 230.989 178.662 231.809 178.087C232.629 177.511 233.588 177.224 234.686 177.224C235.798 177.224 236.757 177.511 237.563 178.087C238.382 178.662 239.012 179.488 239.451 180.564C239.89 181.626 240.11 182.894 240.11 184.369V184.413C240.11 185.888 239.89 187.164 239.451 188.24C239.012 189.302 238.382 190.12 237.563 190.696C236.757 191.271 235.798 191.558 234.686 191.558Z" fill="white"/>
<path d="M253.154 197C254.252 197 255.159 196.639 255.877 195.916C256.594 195.193 256.953 194.294 256.953 193.217C256.953 192.141 256.594 191.249 255.877 190.541C255.159 189.818 254.252 189.457 253.154 189.457C252.07 189.457 251.163 189.818 250.431 190.541C249.713 191.249 249.355 192.141 249.355 193.217C249.355 194.294 249.713 195.193 250.431 195.916C251.163 196.639 252.07 197 253.154 197Z" fill="white"/>
<path d="M268.679 196.978C271.051 196.978 273.108 196.491 274.85 195.518C276.592 194.53 277.939 193.114 278.89 191.271C279.856 189.427 280.34 187.215 280.34 184.634V184.59C280.34 182.024 279.856 179.827 278.89 177.998C277.924 176.155 276.563 174.746 274.806 173.773C273.064 172.785 271.014 172.291 268.657 172.291C266.315 172.291 264.273 172.785 262.53 173.773C260.788 174.761 259.434 176.177 258.468 178.02C257.502 179.849 257.019 182.039 257.019 184.59V184.634C257.019 187.2 257.494 189.405 258.446 191.249C259.398 193.092 260.744 194.508 262.486 195.496C264.229 196.484 266.293 196.978 268.679 196.978ZM268.701 191.912C267.647 191.912 266.732 191.632 265.956 191.072C265.18 190.496 264.58 189.671 264.155 188.594C263.745 187.503 263.541 186.183 263.541 184.634V184.59C263.541 183.056 263.753 181.751 264.177 180.675C264.602 179.598 265.195 178.78 265.956 178.219C266.732 177.644 267.632 177.357 268.657 177.357C269.697 177.357 270.604 177.644 271.38 178.219C272.156 178.78 272.756 179.598 273.181 180.675C273.605 181.751 273.818 183.056 273.818 184.59V184.634C273.818 186.183 273.605 187.503 273.181 188.594C272.771 189.671 272.178 190.496 271.402 191.072C270.641 191.632 269.74 191.912 268.701 191.912Z" fill="white"/>
<path d="M294.394 197C296.458 197 298.288 196.676 299.883 196.027C301.479 195.363 302.731 194.434 303.639 193.239C304.546 192.045 305 190.644 305 189.036V189.014C305 187.215 304.422 185.785 303.265 184.723C302.109 183.661 300.323 182.865 297.907 182.334L293.889 181.471C292.644 181.206 291.766 180.866 291.253 180.453C290.741 180.041 290.485 179.51 290.485 178.861V178.839C290.485 178.293 290.646 177.821 290.968 177.423C291.305 177.025 291.758 176.715 292.329 176.494C292.9 176.273 293.552 176.162 294.284 176.162C295.484 176.162 296.436 176.42 297.139 176.936C297.841 177.438 298.28 178.02 298.456 178.684L298.478 178.794H304.429V178.706C304.341 177.393 303.895 176.206 303.09 175.144C302.299 174.068 301.164 173.213 299.686 172.578C298.207 171.93 296.414 171.605 294.306 171.605C292.3 171.605 290.536 171.922 289.014 172.556C287.506 173.19 286.327 174.083 285.478 175.233C284.644 176.368 284.226 177.703 284.226 179.237V179.259C284.226 181.073 284.797 182.555 285.939 183.705C287.096 184.856 288.823 185.681 291.122 186.183L295.162 187.046C296.392 187.326 297.27 187.68 297.797 188.107C298.324 188.535 298.588 189.073 298.588 189.722V189.766C298.588 190.297 298.412 190.762 298.061 191.16C297.709 191.558 297.226 191.875 296.611 192.111C295.997 192.332 295.279 192.443 294.459 192.443C293.2 192.443 292.198 192.2 291.451 191.713C290.719 191.226 290.221 190.607 289.958 189.855L289.914 189.766H283.611L283.633 189.855C283.78 191.241 284.285 192.473 285.149 193.549C286.027 194.626 287.235 195.474 288.772 196.093C290.324 196.698 292.198 197 294.394 197Z" fill="white"/>
<path fill-rule="evenodd" clip-rule="evenodd" d="M211.936 196.314C210.691 196.757 209.227 196.978 207.544 196.978C205.143 196.978 203.079 196.484 201.351 195.496C199.624 194.493 198.292 193.07 197.355 191.226C196.432 189.383 195.971 187.2 195.971 184.679V184.656C195.971 182.135 196.432 179.952 197.355 178.109C198.292 176.25 199.602 174.82 201.285 173.817C202.984 172.8 204.982 172.291 207.28 172.291C209.579 172.291 211.563 172.785 213.231 173.773C214.915 174.746 216.211 176.125 217.118 177.91C218.041 179.694 218.502 181.781 218.502 184.17V186.161H202.298C202.296 186.08 202.296 185.999 202.296 185.917V183.418C202.296 182.951 202.321 182.51 202.371 182.094C202.371 182.093 202.371 182.092 202.371 182.09H212.346C212.251 181.275 212.063 180.56 211.782 179.945C211.358 179.001 210.765 178.293 210.003 177.821C209.257 177.349 208.386 177.113 207.39 177.113C206.395 177.113 205.509 177.357 204.733 177.843C203.972 178.33 203.372 179.045 202.932 179.989C202.654 180.598 202.467 181.298 202.371 182.09H199.111V186.161H202.298C202.323 187.369 202.534 188.409 202.932 189.28C203.372 190.209 203.994 190.924 204.799 191.426C205.604 191.912 206.563 192.155 207.676 192.155C208.554 192.155 209.315 192.015 209.959 191.735C210.604 191.455 211.131 191.101 211.541 190.673C211.95 190.246 212.229 189.811 212.375 189.368L212.419 189.236H218.304L218.238 189.479C218.063 190.349 217.718 191.226 217.206 192.111C216.694 192.996 215.998 193.807 215.12 194.545C214.256 195.282 213.195 195.872 211.936 196.314Z" fill="white"/>
<path d="M202.296 185.917V183.418C202.296 182.951 202.321 182.51 202.371 182.094L202.371 182.09H199.111V186.161H202.298C202.296 186.08 202.296 185.999 202.296 185.917Z" fill="white"/>
</svg>
