<svg version="1.1" xmlns="http://www.w3.org/2000/svg" xmlns:xlink="http://www.w3.org/1999/xlink" width="9.54254" height="9.54258" viewBox="0,0,9.54254,9.54258"><g transform="translate(-235.22874,-175.2287)"><g data-paper-data="{&quot;isPaintingLayer&quot;:true}" fill="#fafafa" fill-rule="nonzero" stroke="#ffffff" stroke-width="0" stroke-linecap="round" stroke-linejoin="miter" stroke-miterlimit="10" stroke-dasharray="" stroke-dashoffset="0" style="mix-blend-mode: normal"><path d="M238.80445,184.27605c-0.31709,-0.31709 -0.49524,-0.74717 -0.49524,-1.19558v-1.38965h-1.38965c-0.44843,0 -0.8785,-0.17815 -1.19558,-0.49524c-0.31709,-0.31709 -0.49524,-0.74717 -0.49524,-1.19558c0,-0.44843 0.17815,-0.8785 0.49524,-1.19558c0.31709,-0.31709 0.74717,-0.49524 1.19558,-0.49524h1.38965v-1.38965c0,-0.44843 0.17815,-0.8785 0.49524,-1.19558c0.31709,-0.31709 0.74717,-0.49524 1.19558,-0.49524c0.44843,0 0.8785,0.17815 1.19558,0.49524c0.31709,0.31709 0.49524,0.74717 0.49524,1.19558v1.38965h1.38961c0.44843,0 0.8785,0.17815 1.19558,0.49524c0.31709,0.31709 0.49524,0.74717 0.49524,1.19558c0,0.44843 -0.17815,0.8785 -0.49524,1.19558c-0.31709,0.31709 -0.74717,0.49524 -1.19558,0.49524h-1.38961v1.38965c0,0.44843 -0.17815,0.8785 -0.49524,1.19558c-0.31709,0.31709 -0.74717,0.49524 -1.19558,0.49524c-0.44843,0 -0.8785,-0.17815 -1.19558,-0.49524z"/></g></g></svg>