<svg width="804" height="360" viewBox="0 0 804 360" fill="none" xmlns="http://www.w3.org/2000/svg">
<path d="M2 63C15.3333 23 28.6667 23 42 63C55.3333 103 68.6667 103 82 63C95.3333 23 108.667 23 122 63C135.333 103 148.667 103 162 63C175.333 23 188.667 23 202 63C215.333 103 228.667 103 242 63C255.333 23 268.667 23 282 63C295.333 103 308.667 103 322 63C335.333 23 348.667 23 362 63C375.333 103 388.667 103 402 63C415.333 23 428.667 23 442 63C455.333 103 468.667 103 482 63C495.333 23 508.667 23 522 63C535.333 103 548.667 103 562 63C575.333 23 588.667 23 602 63C615.333 103 628.667 103 642 63C655.333 23 668.667 23 682 63C695.333 103 708.667 103 722 63C735.333 23 748.667 23 762 63C775.333 103 788.667 103 802 63" stroke="#2859F0" stroke-opacity="0.5" stroke-width="4"/>
</svg>
