<svg width="1004" height="360" viewBox="0 0 1004 360" fill="none" xmlns="http://www.w3.org/2000/svg">
<path d="M2 56C18.6667 29.3333 35.3333 29.3333 52 56C68.6667 82.6667 85.3333 82.6667 102 56C118.667 29.3333 135.333 29.3333 152 56C168.667 82.6667 185.333 82.6667 202 56C218.667 29.3333 235.333 29.3333 252 56C268.667 82.6667 285.333 82.6667 302 56C318.667 29.3333 335.333 29.3333 352 56C368.667 82.6667 385.333 82.6667 402 56C418.667 29.3333 435.333 29.3333 452 56C468.667 82.6667 485.333 82.6667 502 56C518.667 29.3333 535.333 29.3333 552 56C568.667 82.6667 585.333 82.6667 602 56C618.667 29.3333 635.333 29.3333 652 56C668.667 82.6667 685.333 82.6667 702 56C718.667 29.3333 735.333 29.3333 752 56C768.667 82.6667 785.333 82.6667 802 56C818.667 29.3333 835.333 29.3333 852 56C868.667 82.6667 885.333 82.6667 902 56C918.667 29.3333 935.333 29.3333 952 56C968.667 82.6667 985.333 82.6667 1002 56" stroke="#9FF079" stroke-opacity="0.6" stroke-width="4"/>
</svg>
