<svg version="1.1" xmlns="http://www.w3.org/2000/svg" xmlns:xlink="http://www.w3.org/1999/xlink" width="1204" height="34" viewBox="0,0,1204,34"><g transform="translate(362,-59)"><g data-paper-data="{&quot;isPaintingLayer&quot;:true}" fill="none" fill-rule="nonzero" stroke-opacity="0.7" stroke="#00f0ff" stroke-width="4" stroke-linecap="butt" stroke-linejoin="miter" stroke-miterlimit="10" stroke-dasharray="" stroke-dashoffset="0" style="mix-blend-mode: normal"><path d="M-360,76c20,-20 40,-20 60,0c20,20 40,20 60,0c20,-20 40,-20 60,0c20,20 40,20 60,0c20,-20 40,-20 60,0c20,20 40,20 60,0c20,-20 40,-20 60,0c20,20 40,20 60,0c20,-20 40,-20 60,0c20,20 40,20 60,0c20,-20 40,-20 60,0c20,20 40,20 60,0c20,-20 40,-20 60,0c20,20 40,20 60,0c20,-20 40,-20 60,0c20,20 40,20 60,0c20,-20 40,-20 60,0c20,20 40,20 60,0c20,-20 40,-20 60,0c20,20 40,20 60,0"/></g></g></svg>