<svg width="604" height="360" viewBox="0 0 604 360" fill="none" xmlns="http://www.w3.org/2000/svg">
<path d="M2 68C12 48 22 48 32 68C42 88 52 88 62 68C72 48 82 48 92 68C102 88 112 88 122 68C132 48 142 48 152 68C162 88 172 88 182 68C192 48 202 48 212 68C222 88 232 88 242 68C252 48 262 48 272 68C282 88 292 88 302 68C312 48 322 48 332 68C342 88 352 88 362 68C372 48 382 48 392 68C402 88 412 88 422 68C432 48 442 48 452 68C462 88 472 88 482 68C492 48 502 48 512 68C522 88 532 88 542 68C552 48 562 48 572 68C582 88 592 88 602 68" stroke="#00FFB2" stroke-opacity="0.5" stroke-width="4"/>
</svg>
