<svg version="1.1" xmlns="http://www.w3.org/2000/svg" xmlns:xlink="http://www.w3.org/1999/xlink" width="91.67459" height="117.15858" viewBox="0,0,91.67459,117.15858"><g transform="translate(-200.51162,-121.16679)"><g data-paper-data="{&quot;isPaintingLayer&quot;:true}" fill="#fafafa" fill-rule="nonzero" stroke="#000000" stroke-width="0" stroke-linecap="butt" stroke-linejoin="miter" stroke-miterlimit="10" stroke-dasharray="" stroke-dashoffset="0" style="mix-blend-mode: normal"><path d="M233.73972,121.1668h1.84072v0.04756c31.42583,0.97435 56.60577,27.00222 56.60577,58.66452c0,29.51486 -21.88056,53.90475 -50.30354,57.86859c-2.04621,0.37165 -4.14879,0.57791 -6.3022,0.57791c-19.36771,0 -35.06885,-15.70113 -35.06885,-35.06885c0,-16.96287 12.04504,-31.1126 28.04842,-34.36491c-1.34548,0.235 -2.72798,0.35674 -4.14043,0.35673c-13.20405,0 -23.90799,-10.70395 -23.90799,-23.90798c0,-6.42181 2.53133,-12.25165 6.65181,-16.54747c4.35183,-4.53691 10.47394,-7.62609 17.25618,-7.6261zM212.98047,191.17767c0,12.566 10.08269,22.77825 22.59998,22.98524c0.12908,0.00243 0.25973,0.00476 0.39002,0.00476c12.69629,0 22.98762,-10.29372 22.98762,-22.99001c0,-9.53388 -5.8144,-17.69038 -14.08128,-21.17306c-2.88411,-0.9656 -5.93066,-1.57594 -9.0942,-1.75749c-0.22213,-0.01587 -0.44904,-0.01438 -0.67302,-0.02378c-12.29596,0.45414 -22.1291,10.54797 -22.1291,22.95433z"/></g></g></svg>