<svg width="480" height="360" viewBox="0 0 480 360" fill="none" xmlns="http://www.w3.org/2000/svg">
<g clip-path="url(#clip0_1967_8909)">
<path d="M-160 63C-146.667 23 -133.333 23 -120 63C-106.667 103 -93.3333 103 -80 63C-66.6667 23 -53.3333 23 -40 63C-26.6667 103 -13.3333 103 0 63C13.3333 23 26.6667 23 40 63C53.3333 103 66.6667 103 80 63C93.3333 23 106.667 23 120 63C133.333 103 146.667 103 160 63C173.333 23 186.667 23 200 63C213.333 103 226.667 103 240 63C253.333 23 266.667 23 280 63C293.333 103 306.667 103 320 63C333.333 23 346.667 23 360 63C373.333 103 386.667 103 400 63C413.333 23 426.667 23 440 63C453.333 103 466.667 103 480 63C493.333 23 506.667 23 520 63C533.333 103 546.667 103 560 63C573.333 23 586.667 23 600 63C613.333 103 626.667 103 640 63" stroke="#2859F0" stroke-opacity="0.4" stroke-width="4"/>
</g>
<defs>
<clipPath id="clip0_1967_8909">
<rect width="480" height="360" fill="white"/>
</clipPath>
</defs>
</svg>
