<svg width="480" height="360" viewBox="0 0 480 360" fill="none" xmlns="http://www.w3.org/2000/svg">
<g clip-path="url(#clip0_1967_8868)">
<path d="M-60 68C-50 48 -40 48 -30 68C-20 88 -10 88 0 68C10 48 20 48 30 68C40 88 50 88 60 68C70 48 80 48 90 68C100 88 110 88 120 68C130 48 140 48 150 68C160 88 170 88 180 68C190 48 200 48 210 68C220 88 230 88 240 68C250 48 260 48 270 68C280 88 290 88 300 68C310 48 320 48 330 68C340 88 350 88 360 68C370 48 380 48 390 68C400 88 410 88 420 68C430 48 440 48 450 68C460 88 470 88 480 68C490 48 500 48 510 68C520 88 530 88 540 68" stroke="#00FFB2" stroke-opacity="0.4" stroke-width="4"/>
</g>
<defs>
<clipPath id="clip0_1967_8868">
<rect width="480" height="360" fill="white"/>
</clipPath>
</defs>
</svg>
