<svg width="480" height="360" viewBox="0 0 480 360" fill="none" xmlns="http://www.w3.org/2000/svg">
<g clip-path="url(#clip0_1967_8914)">
<path d="M-260 56C-243.333 29.3333 -226.667 29.3333 -210 56C-193.333 82.6667 -176.667 82.6667 -160 56C-143.333 29.3333 -126.667 29.3333 -110 56C-93.3333 82.6667 -76.6667 82.6667 -60 56C-43.3333 29.3333 -26.6667 29.3333 -10 56C6.66667 82.6667 23.3333 82.6667 40 56C56.6667 29.3333 73.3333 29.3333 90 56C106.667 82.6667 123.333 82.6667 140 56C156.667 29.3333 173.333 29.3333 190 56C206.667 82.6667 223.333 82.6667 240 56C256.667 29.3333 273.333 29.3333 290 56C306.667 82.6667 323.333 82.6667 340 56C356.667 29.3333 373.333 29.3333 390 56C406.667 82.6667 423.333 82.6667 440 56C456.667 29.3333 473.333 29.3333 490 56C506.667 82.6667 523.333 82.6667 540 56C556.667 29.3333 573.333 29.3333 590 56C606.667 82.6667 623.333 82.6667 640 56C656.667 29.3333 673.333 29.3333 690 56C706.667 82.6667 723.333 82.6667 740 56" stroke="#9FF079" stroke-opacity="0.6" stroke-width="4"/>
</g>
<defs>
<clipPath id="clip0_1967_8914">
<rect width="480" height="360" fill="white"/>
</clipPath>
</defs>
</svg>
