<svg version="1.1" xmlns="http://www.w3.org/2000/svg" xmlns:xlink="http://www.w3.org/1999/xlink" width="208.90318" height="71.32157" viewBox="0,0,208.90318,71.32157"><g transform="translate(-135.54841,-144.33921)"><g data-paper-data="{&quot;isPaintingLayer&quot;:true}" fill="#fafafa" fill-rule="nonzero" stroke="none" stroke-width="2.64011" stroke-linecap="butt" stroke-linejoin="miter" stroke-miterlimit="10" stroke-dasharray="" stroke-dashoffset="0" style="mix-blend-mode: normal"><path d="M170.5047,144.33922l-12.59288,71.32153h-22.36341l12.59288,-71.32153zM202.96844,144.33922l-9.57086,54.3964h21.55799l-3.02203,16.92513h-43.9214l12.59288,-71.32153zM279.10906,144.33923l-3.12074,17.72831h-25.18576l-1.50989,8.86639h22.16149l-3.02202,16.82191h-22.16149l-1.81276,10.07341h25.18352l-3.12298,17.83149h-47.54693l12.59064,-71.32153zM324.0019,144.33923c6.44712,0 11.4498,1.27547 15.00915,3.82746c3.62651,2.48483 5.44054,6.14445 5.44054,10.97979c0,1.14167 -0.10139,2.38556 -0.30287,3.72873c-0.73873,4.16377 -2.45137,7.68822 -5.13768,10.57595c-2.6863,2.82063 -5.90875,4.70227 -9.66956,5.64246c3.49218,0.87304 6.14451,2.55188 7.95776,5.03671c1.8804,2.41768 2.82011,5.27058 2.82011,8.56127c0,1.07455 -0.09916,2.21705 -0.30063,3.42587c-1.07452,6.24563 -3.99725,11.08158 -8.76544,14.5066c-4.70102,3.35787 -10.91158,5.03671 -18.63469,5.03671h-37.37481l12.59288,-71.32153zM305.06433,172.14319h8.66223c2.01473,0 3.5944,-0.40335 4.73608,-1.20924c1.14168,-0.80588 1.84701,-2.0498 2.11564,-3.72874c0.06715,-0.33579 0.09872,-0.7707 0.09872,-1.30797c0,-1.34314 -0.43494,-2.31664 -1.30798,-2.92107c-0.80588,-0.60441 -2.08357,-0.90862 -3.82968,-0.90862h-8.66224zM300.63113,197.72829h10.17438c2.01472,0 3.56059,-0.36959 4.63511,-1.10829c1.14168,-0.8059 1.84701,-2.08137 2.11564,-3.82746c0.06715,-0.33579 0.09872,-0.77073 0.09872,-1.30797c0,-2.552 -1.71263,-3.82968 -5.13767,-3.82968h-10.17436z"/></g></g></svg>